<svg xmlns="http://www.w3.org/2000/svg" xml:space="preserve" width="655.72571" height="400" viewBox="0 0 655.7257 399.99999"><defs><radialGradient id="a" cx="0" cy="0" r="1" fx="0" fy="0" gradientTransform="matrix(300.00837 0 0 -300.00832 501.858 563.734)" gradientUnits="userSpaceOnUse" spreadMethod="pad"><stop offset="0" style="stop-opacity:1;stop-color:#8cdaf8"/><stop offset="0.5" style="stop-opacity:1;stop-color:#1fa1e2"/><stop offset="1" style="stop-opacity:1;stop-color:#1d4e9e"/></radialGradient><radialGradient id="b" cx="0" cy="0" r="1" fx="0" fy="0" gradientTransform="matrix(300.02623 0 0 -300.02623 501.873 563.732)" gradientUnits="userSpaceOnUse" spreadMethod="pad"><stop offset="0" style="stop-opacity:1;stop-color:#8cdaf8"/><stop offset="0.5" style="stop-opacity:1;stop-color:#1fa1e2"/><stop offset="1" style="stop-opacity:1;stop-color:#1d4e9e"/></radialGradient><radialGradient id="c" cx="0" cy="0" r="1" fx="0" fy="0" gradientTransform="matrix(300.00194 0 0 -300.00194 501.86 563.734)" gradientUnits="userSpaceOnUse" spreadMethod="pad"><stop offset="0" style="stop-opacity:1;stop-color:#8cdaf8"/><stop offset="0.5" style="stop-opacity:1;stop-color:#1fa1e2"/><stop offset="1" style="stop-opacity:1;stop-color:#1d4e9e"/></radialGradient><radialGradient id="d" cx="0" cy="0" r="1" fx="0" fy="0" gradientTransform="matrix(300.01108 0 0 -300.01108 501.863 563.732)" gradientUnits="userSpaceOnUse" spreadMethod="pad"><stop offset="0" style="stop-opacity:1;stop-color:#8cdaf8"/><stop offset="0.5" style="stop-opacity:1;stop-color:#1fa1e2"/><stop offset="1" style="stop-opacity:1;stop-color:#1d4e9e"/></radialGradient><radialGradient id="e" cx="0" cy="0" r="1" fx="0" fy="0" gradientTransform="matrix(300.0115 0 0 -300.01145 501.863 563.732)" gradientUnits="userSpaceOnUse" spreadMethod="pad"><stop offset="0" style="stop-opacity:1;stop-color:#8cdaf8"/><stop offset="0.5" style="stop-opacity:1;stop-color:#1fa1e2"/><stop offset="1" style="stop-opacity:1;stop-color:#1d4e9e"/></radialGradient><radialGradient id="f" cx="0" cy="0" r="1" fx="0" fy="0" gradientTransform="matrix(300.01008 0 0 -300.01003 501.866 563.732)" gradientUnits="userSpaceOnUse" spreadMethod="pad"><stop offset="0" style="stop-opacity:1;stop-color:#8cdaf8"/><stop offset="0.5" style="stop-opacity:1;stop-color:#1fa1e2"/><stop offset="1" style="stop-opacity:1;stop-color:#1d4e9e"/></radialGradient><radialGradient id="g" cx="0" cy="0" r="1" fx="0" fy="0" gradientTransform="matrix(300.01406 0 0 -300.01404 501.863 563.732)" gradientUnits="userSpaceOnUse" spreadMethod="pad"><stop offset="0" style="stop-opacity:1;stop-color:#8cdaf8"/><stop offset="0.5" style="stop-opacity:1;stop-color:#1fa1e2"/><stop offset="1" style="stop-opacity:1;stop-color:#1d4e9e"/></radialGradient><radialGradient id="h" cx="0" cy="0" r="1" fx="0" fy="0" gradientTransform="matrix(300.01326 0 0 -300.01326 501.858 563.732)" gradientUnits="userSpaceOnUse" spreadMethod="pad"><stop offset="0" style="stop-opacity:1;stop-color:#8cdaf8"/><stop offset="0.5" style="stop-opacity:1;stop-color:#1fa1e2"/><stop offset="1" style="stop-opacity:1;stop-color:#1d4e9e"/></radialGradient><radialGradient id="i" cx="0" cy="0" r="1" fx="0" fy="0" gradientTransform="matrix(300.01213 0 0 -300.01208 501.858 563.732)" gradientUnits="userSpaceOnUse" spreadMethod="pad"><stop offset="0" style="stop-opacity:1;stop-color:#8cdaf8"/><stop offset="0.5" style="stop-opacity:1;stop-color:#1fa1e2"/><stop offset="1" style="stop-opacity:1;stop-color:#1d4e9e"/></radialGradient><radialGradient id="j" cx="0" cy="0" r="1" fx="0" fy="0" gradientTransform="matrix(300.01414 0 0 -300.01414 501.856 563.74)" gradientUnits="userSpaceOnUse" spreadMethod="pad"><stop offset="0" style="stop-opacity:1;stop-color:#8cdaf8"/><stop offset="0.5" style="stop-opacity:1;stop-color:#1fa1e2"/><stop offset="1" style="stop-opacity:1;stop-color:#1d4e9e"/></radialGradient><radialGradient id="k" cx="0" cy="0" r="1" fx="0" fy="0" gradientTransform="matrix(300.02193 0 0 -300.02191 501.863 563.745)" gradientUnits="userSpaceOnUse" spreadMethod="pad"><stop offset="0" style="stop-opacity:1;stop-color:#8cdaf8"/><stop offset="0.5" style="stop-opacity:1;stop-color:#1fa1e2"/><stop offset="1" style="stop-opacity:1;stop-color:#1d4e9e"/></radialGradient><radialGradient id="l" cx="0" cy="0" r="1" fx="0" fy="0" gradientTransform="matrix(300.0015 0 0 -300.00146 501.86 563.733)" gradientUnits="userSpaceOnUse" spreadMethod="pad"><stop offset="0" style="stop-opacity:1;stop-color:#8cdaf8"/><stop offset="0.5" style="stop-opacity:1;stop-color:#1fa1e2"/><stop offset="1" style="stop-opacity:1;stop-color:#1d4e9e"/></radialGradient><radialGradient id="m" cx="0" cy="0" r="1" fx="0" fy="0" gradientTransform="matrix(300.00124 0 0 -300.00124 501.868 563.733)" gradientUnits="userSpaceOnUse" spreadMethod="pad"><stop offset="0" style="stop-opacity:1;stop-color:#8cdaf8"/><stop offset="0.5" style="stop-opacity:1;stop-color:#1fa1e2"/><stop offset="1" style="stop-opacity:1;stop-color:#1d4e9e"/></radialGradient><radialGradient id="n" cx="0" cy="0" r="1" fx="0" fy="0" gradientTransform="matrix(299.99486 0 0 -299.99483 501.873 563.732)" gradientUnits="userSpaceOnUse" spreadMethod="pad"><stop offset="0" style="stop-opacity:1;stop-color:#8cdaf8"/><stop offset="0.5" style="stop-opacity:1;stop-color:#1fa1e2"/><stop offset="1" style="stop-opacity:1;stop-color:#1d4e9e"/></radialGradient><radialGradient id="o" cx="0" cy="0" r="1" fx="0" fy="0" gradientTransform="matrix(300.01272 0 0 -300.01269 501.868 563.732)" gradientUnits="userSpaceOnUse" spreadMethod="pad"><stop offset="0" style="stop-opacity:1;stop-color:#8cdaf8"/><stop offset="0.5" style="stop-opacity:1;stop-color:#1fa1e2"/><stop offset="1" style="stop-opacity:1;stop-color:#1d4e9e"/></radialGradient><radialGradient id="p" cx="0" cy="0" r="1" fx="0" fy="0" gradientTransform="matrix(300.01387 0 0 -300.01384 501.86 563.734)" gradientUnits="userSpaceOnUse" spreadMethod="pad"><stop offset="0" style="stop-opacity:1;stop-color:#8cdaf8"/><stop offset="0.5" style="stop-opacity:1;stop-color:#1fa1e2"/><stop offset="1" style="stop-opacity:1;stop-color:#1d4e9e"/></radialGradient></defs><path d="M331.98 513.981c-18.225-8.09-31.505-15.51-42.193-22.477l-5.448-33.352c12.87 5.573 27.842 13.404 47.201 26.445l115.617 78.032c-1.49.18-2.988.327-4.452.464z" style="fill:url(#a);stroke:none;stroke-width:2.44339" transform="matrix(1.33333 0 0 -1.33333 -341.288 751.641)"/><path d="M394.27 563.731h-92.671l-3.878-23.613c6.294 1.205 13.104 2.712 20.566 4.57z" style="fill:url(#b);stroke:none;stroke-width:2.44339" transform="matrix(1.33333 0 0 -1.33333 -341.288 751.641)"/><path d="M335.154 479.265c-28.761-19.403-43.214-34.12-55.125-47.521l-7.453-45.66c12.435 7.926 26.653 18.572 44.92 36.228L460.26 560.286a80.99 80.99 0 0 1-3.817.83z" style="fill:url(#c);stroke:none;stroke-width:2.44339" transform="matrix(1.33333 0 0 -1.33333 -341.288 751.641)"/><path d="M582.941 563.731h-7.42l98.857-43.861c14.57-6.488 26.677-10.925 37.252-14.116l-4.242 26.008c-6.959 2.248-14.712 4.48-23.493 6.687z" style="fill:url(#d);stroke:none;stroke-width:2.44339" transform="matrix(1.33333 0 0 -1.33333 -341.288 751.641)"/><path d="M685.44 544.687c7.464-1.857 14.295-3.364 20.575-4.569l-3.853 23.613h-92.69z" style="fill:url(#e);stroke:none;stroke-width:2.44339" transform="matrix(1.33333 0 0 -1.33333 -341.288 751.641)"/><path d="M319.863 538.45c-8.8-2.207-16.554-4.44-23.49-6.688l-4.257-26.008c10.56 3.191 22.685 7.628 37.25 14.116l98.847 43.861h-7.423z" style="fill:url(#f);stroke:none;stroke-width:2.44339" transform="matrix(1.33333 0 0 -1.33333 -341.288 751.641)"/><path d="M526.46 554.175a46.054 46.054 0 0 1-3.563-1.916L614.95 354.73c17.717-37.987 31.96-54.236 45.315-70.308h52.762c-6.352 15.246-15.112 32.727-33.046 57.397z" style="fill:url(#g);stroke:none;stroke-width:2.44339" transform="matrix(1.33333 0 0 -1.33333 -341.288 751.641)"/><path d="M536.326 558.24a128.386 128.386 0 0 1-3.865-1.394l152.741-211.227c25.128-34.618 42.425-47.695 58.888-61.197h3.67l-9.844 60.305c-12.716 20.18-21.942 39.903-56.157 72.948z" style="fill:url(#h);stroke:none;stroke-width:2.44339" transform="matrix(1.33333 0 0 -1.33333 -341.288 751.641)"/><path d="M323.768 341.82c-17.954-24.671-26.69-42.152-33.045-57.398h52.756c13.353 16.072 27.605 32.32 45.303 70.308l92.064 197.53a49.221 49.221 0 0 1-3.552 1.915z" style="fill:url(#i);stroke:none;stroke-width:2.44339" transform="matrix(1.33333 0 0 -1.33333 -341.288 751.641)"/><path d="M517.429 548.755a68.246 68.246 0 0 1-3.348-2.634l44.402-192.317c8-34.618 16.781-53.442 25.208-69.622 3.397.171 6.727.24 9.93.24h37.966c-3.314 17.255-8.244 37.068-22.472 67.604z" style="fill:url(#j);stroke:none;stroke-width:2.44339" transform="matrix(1.33333 0 0 -1.33333 -341.288 751.641)"/><path d="M394.634 352.026c-14.24-30.536-19.166-50.35-22.485-67.604h37.956c3.223 0 6.55-.069 9.95-.24 8.41 16.18 17.22 35.004 25.208 69.622l44.404 192.3a54.086 54.086 0 0 1-3.357 2.647z" style="fill:url(#k);stroke:none;stroke-width:2.44339" transform="matrix(1.33333 0 0 -1.33333 -341.288 751.641)"/><path d="M508.677 540.924a57.284 57.284 0 0 1-3.58-4.356V346.474c0-41.811 6.003-62.592 11.328-82.743 12.542 9.212 28.067 14.69 43.695 17.676.364 17.607-.298 38.029-7.917 70.956z" style="fill:url(#l);stroke:none;stroke-width:2.44339" transform="matrix(1.33333 0 0 -1.33333 -341.288 751.641)"/><path d="M451.528 352.363c-7.587-32.927-8.256-53.35-7.926-70.956 15.657-2.986 31.17-8.464 43.71-17.676 5.316 20.138 11.352 40.932 11.352 82.743v190.094a70.84 70.84 0 0 1-3.592 4.356z" style="fill:url(#m);stroke:none;stroke-width:2.44339" transform="matrix(1.33333 0 0 -1.33333 -341.288 751.641)"/><path d="M547.292 561.126a96.443 96.443 0 0 1-3.814-.84l142.76-137.974c18.272-17.648 32.487-28.3 44.915-36.228l-7.436 45.66c-11.926 13.402-26.354 28.118-55.108 47.521z" style="fill:url(#n);stroke:none;stroke-width:2.44339" transform="matrix(1.33333 0 0 -1.33333 -341.288 751.641)"/><path d="M321.977 417.675c-34.222-33.055-43.449-52.778-56.157-72.948l-9.854-60.305h3.68c16.478 13.502 33.767 26.579 58.905 61.197l152.72 211.227c-1.27.49-2.559.948-3.846 1.395z" style="fill:url(#o);stroke:none;stroke-width:2.44339" transform="matrix(1.33333 0 0 -1.33333 -341.288 751.641)"/><path d="M561.024 563.093a168.269 168.269 0 0 1-4.452-.464l115.631-78.032c19.342-13.04 34.323-20.872 47.19-26.445l-5.452 33.386c-10.675 6.932-23.962 14.353-42.19 22.443z" style="fill:url(#p);stroke:none;stroke-width:2.44339" transform="matrix(1.33333 0 0 -1.33333 -341.288 751.641)"/></svg>